<svg width="1200" height="420" viewBox="0 0 1200 420" fill="none" xmlns="http://www.w3.org/2000/svg">
  <defs>
    <linearGradient id="bgGradient" x1="0" y1="0" x2="1200" y2="420" gradientUnits="userSpaceOnUse">
      <stop offset="0" stop-color="#0B5D57"/>
      <stop offset="1" stop-color="#012F2D"/>
    </linearGradient>
    <radialGradient id="glow" cx="0" cy="0" r="1" gradientUnits="userSpaceOnUse" gradientTransform="translate(900 70) rotate(35) scale(260 160)">
      <stop offset="0" stop-color="#F9F3E0" stop-opacity="0.8"/>
      <stop offset="1" stop-color="#F9F3E0" stop-opacity="0"/>
    </radialGradient>
    <linearGradient id="goldFill" x1="0" y1="0" x2="1" y2="1">
      <stop offset="0" stop-color="#F8E7B5"/>
      <stop offset="0.5" stop-color="#F2D16B"/>
      <stop offset="1" stop-color="#D4AF37"/>
    </linearGradient>
    <linearGradient id="deepGold" x1="0" y1="0" x2="1" y2="1">
      <stop offset="0" stop-color="#FCE8B9"/>
      <stop offset="1" stop-color="#C7951C"/>
    </linearGradient>
  </defs>

  <rect width="1200" height="420" fill="url(#bgGradient)"/>
  <ellipse cx="880" cy="170" rx="320" ry="180" fill="url(#glow)"/>

  <g opacity="0.9">
    <path d="M834 118c48-48 126-48 174 0s48 126 0 174-126 48-174 0-48-126 0-174z" fill="rgba(255,255,255,0.05)"/>
    <path d="M862 148c32-32 84-32 116 0s32 84 0 116-84 32-116 0-32-84 0-116z" fill="rgba(255,255,255,0.08)"/>
  </g>

  <g transform="translate(760 90)">
    <circle cx="110" cy="110" r="92" fill="url(#goldFill)"/>
    <circle cx="110" cy="110" r="72" fill="#0E4D47" opacity="0.15"/>
    <path d="M110 56c30 0 54 24 54 54s-24 54-54 54-54-24-54-54 24-54 54-54zm0 18c-20 0-36 16-36 36s16 36 36 36 36-16 36-36-16-36-36-36z" fill="url(#deepGold)"/>
    <path d="M90 70l20-32 20 32" stroke="#FDF6DD" stroke-width="6" stroke-linecap="round" stroke-linejoin="round"/>
    <circle cx="110" cy="110" r="8" fill="#FDF6DD"/>
    <path d="M142 134l38 38" stroke="#FCEABF" stroke-width="8" stroke-linecap="round" opacity="0.4"/>
  </g>

  <g transform="translate(500 180) rotate(-12)">
    <ellipse cx="88" cy="52" rx="80" ry="48" fill="url(#goldFill)"/>
    <ellipse cx="88" cy="52" rx="54" ry="32" fill="#0E4D47" opacity="0.12"/>
    <path d="M32 50c6 30 34 52 66 52s60-22 66-52" stroke="#FDF6DD" stroke-width="6" stroke-linecap="round" opacity="0.7"/>
    <circle cx="20" cy="52" r="8" fill="#FCEABF"/>
    <circle cx="156" cy="52" r="8" fill="#FCEABF"/>
  </g>

  <g transform="translate(340 120)">
    <rect x="0" y="40" width="160" height="120" rx="28" fill="#0E4D47" opacity="0.35"/>
    <rect x="18" y="18" width="160" height="120" rx="28" fill="url(#goldFill)"/>
    <rect x="42" y="44" width="112" height="68" rx="18" fill="#fff" opacity="0.85"/>
    <path d="M66 78h64" stroke="#D4AF37" stroke-width="6" stroke-linecap="round"/>
    <path d="M66 96h64" stroke="#D4AF37" stroke-width="6" stroke-linecap="round" opacity="0.6"/>
    <circle cx="146" cy="58" r="10" fill="#D4AF37"/>
  </g>

  <g fill="#FDF6DD" opacity="0.85">
    <path d="M1070 90l6 18h19l-15 10 6 18-16-12-16 12 6-18-15-10h19l6-18z"/>
    <path d="M960 300l5 16h17l-13 9 5 16-14-10-14 10 5-16-13-9h17l5-16z" opacity="0.7"/>
    <path d="M780 292l4 12h13l-10 7 4 12-11-8-11 8 4-12-10-7h13l4-12z" opacity="0.5"/>
  </g>
</svg>
